{
	"asset":{
		"generator":"Khronos glTF Blender I/O v4.5.49",
		"version":"2.0"
	},
	"scene":0,
	"scenes":[
		{
			"name":"Scene",
			"nodes":[
				2,
				3,
				4
			]
		}
	],
	"nodes":[
		{
			"mesh":0,
			"name":"vth_d.camera_body",
			"rotation":[
				0,
				0,
				0.7071068286895752,
				0.7071068286895752
			],
			"scale":[
				0.03236593306064606,
				0.03236592561006546,
				0.03236592561006546
			],
			"translation":[
				0,
				0,
				-0.032447025179862976
			]
		},
		{
			"mesh":1,
			"name":"vth_d.canvas",
			"translation":[
				3.3674395084381104,
				0,
				0.06524333357810974
			]
		},
		{
			"children":[
				0,
				1
			],
			"name":"vth_d.group"
		},
		{
			"mesh":2,
			"name":"Cube",
			"scale":[
				0.05000000074505806,
				0.05000000074505806,
				0.05000000074505806
			],
			"translation":[
				0.05105099827051163,
				0.11739949882030487,
				0.04767711088061333
			]
		},
		{
			"mesh":3,
			"name":"Sphere",
			"scale":[
				0.05000000074505806,
				0.05000000074505806,
				0.05000000074505806
			],
			"translation":[
				0.17724454402923584,
				-0.111457459628582,
				0
			]
		}
	],
	"materials":[
		{
			"doubleSided":true,
			"name":"metal_body",
			"pbrMetallicRoughness":{
				"baseColorFactor":[
					0.005936732515692711,
					0.005936732515692711,
					0.005936732515692711,
					1
				],
				"metallicFactor":0,
				"roughnessFactor":0.3235294222831726
			}
		},
		{
			"alphaMode":"BLEND",
			"doubleSided":true,
			"name":"canvas_transparent",
			"pbrMetallicRoughness":{
				"baseColorFactor":[
					1,
					1,
					1,
					0.8999999761581421
				],
				"baseColorTexture":{
					"index":0
				},
				"metallicFactor":0,
				"roughnessFactor":0.5
			}
		}
	],
	"meshes":[
		{
			"name":"Cube.234",
			"primitives":[
				{
					"attributes":{
						"POSITION":0,
						"NORMAL":1
					},
					"indices":2,
					"material":0
				}
			]
		},
		{
			"name":"Plane.002",
			"primitives":[
				{
					"attributes":{
						"POSITION":3,
						"NORMAL":4,
						"TEXCOORD_0":5
					},
					"indices":6,
					"material":1
				}
			]
		},
		{
			"name":"Cube",
			"primitives":[
				{
					"attributes":{
						"POSITION":7,
						"NORMAL":8,
						"TEXCOORD_0":9
					},
					"indices":10
				}
			]
		},
		{
			"name":"Sphere",
			"primitives":[
				{
					"attributes":{
						"POSITION":11,
						"NORMAL":12,
						"TEXCOORD_0":13
					},
					"indices":14
				}
			]
		}
	],
	"textures":[
		{
			"sampler":0,
			"source":0
		}
	],
	"images":[
		{
			"mimeType":"image/png",
			"name":"canvasTex",
			"uri":"canvasTex.png"
		}
	],
	"accessors":[
		{
			"bufferView":0,
			"componentType":5126,
			"count":3460,
			"max":[
				2.0138702392578125,
				0.0007786320056766272,
				1.9889181852340698
			],
			"min":[
				-2.020573139190674,
				-2.802687644958496,
				-0.9916302561759949
			],
			"type":"VEC3"
		},
		{
			"bufferView":1,
			"componentType":5126,
			"count":3460,
			"type":"VEC3"
		},
		{
			"bufferView":2,
			"componentType":5123,
			"count":7338,
			"type":"SCALAR"
		},
		{
			"bufferView":3,
			"componentType":5126,
			"count":4,
			"max":[
				-3.375840425491333,
				0.06700000166893005,
				0.09700232744216919
			],
			"min":[
				-3.375840425491333,
				-0.06700000166893005,
				-0.06499767303466797
			],
			"type":"VEC3"
		},
		{
			"bufferView":4,
			"componentType":5126,
			"count":4,
			"type":"VEC3"
		},
		{
			"bufferView":5,
			"componentType":5126,
			"count":4,
			"type":"VEC2"
		},
		{
			"bufferView":6,
			"componentType":5123,
			"count":6,
			"type":"SCALAR"
		},
		{
			"bufferView":7,
			"componentType":5126,
			"count":24,
			"max":[
				1,
				1,
				1
			],
			"min":[
				-1,
				-1,
				-1
			],
			"type":"VEC3"
		},
		{
			"bufferView":8,
			"componentType":5126,
			"count":24,
			"type":"VEC3"
		},
		{
			"bufferView":9,
			"componentType":5126,
			"count":24,
			"type":"VEC2"
		},
		{
			"bufferView":10,
			"componentType":5123,
			"count":36,
			"type":"SCALAR"
		},
		{
			"bufferView":11,
			"componentType":5126,
			"count":1984,
			"max":[
				0.9999997019767761,
				1,
				1
			],
			"min":[
				-0.9999990463256836,
				-0.9999993443489075,
				-1
			],
			"type":"VEC3"
		},
		{
			"bufferView":12,
			"componentType":5126,
			"count":1984,
			"type":"VEC3"
		},
		{
			"bufferView":13,
			"componentType":5126,
			"count":1984,
			"type":"VEC2"
		},
		{
			"bufferView":14,
			"componentType":5123,
			"count":2880,
			"type":"SCALAR"
		}
	],
	"bufferViews":[
		{
			"buffer":0,
			"byteLength":41520,
			"byteOffset":0,
			"target":34962
		},
		{
			"buffer":0,
			"byteLength":41520,
			"byteOffset":41520,
			"target":34962
		},
		{
			"buffer":0,
			"byteLength":14676,
			"byteOffset":83040,
			"target":34963
		},
		{
			"buffer":0,
			"byteLength":48,
			"byteOffset":97716,
			"target":34962
		},
		{
			"buffer":0,
			"byteLength":48,
			"byteOffset":97764,
			"target":34962
		},
		{
			"buffer":0,
			"byteLength":32,
			"byteOffset":97812,
			"target":34962
		},
		{
			"buffer":0,
			"byteLength":12,
			"byteOffset":97844,
			"target":34963
		},
		{
			"buffer":0,
			"byteLength":288,
			"byteOffset":97856,
			"target":34962
		},
		{
			"buffer":0,
			"byteLength":288,
			"byteOffset":98144,
			"target":34962
		},
		{
			"buffer":0,
			"byteLength":192,
			"byteOffset":98432,
			"target":34962
		},
		{
			"buffer":0,
			"byteLength":72,
			"byteOffset":98624,
			"target":34963
		},
		{
			"buffer":0,
			"byteLength":23808,
			"byteOffset":98696,
			"target":34962
		},
		{
			"buffer":0,
			"byteLength":23808,
			"byteOffset":122504,
			"target":34962
		},
		{
			"buffer":0,
			"byteLength":15872,
			"byteOffset":146312,
			"target":34962
		},
		{
			"buffer":0,
			"byteLength":5760,
			"byteOffset":162184,
			"target":34963
		}
	],
	"samplers":[
		{
			"magFilter":9729,
			"minFilter":9987
		}
	],
	"buffers":[
		{
			"byteLength":167944,
			"uri":"cockpit_front.bin"
		}
	]
}
